<?xml version="1.0" encoding="utf-8"?>
<!-- Generator: Adobe Illustrator 18.0.0, SVG Export Plug-In . SVG Version: 6.00 Build 0)  -->
<!DOCTYPE svg PUBLIC "-//W3C//DTD SVG 1.1//EN" "http://www.w3.org/Graphics/SVG/1.1/DTD/svg11.dtd">
<svg version="1.1" id="Your_Icon" xmlns="http://www.w3.org/2000/svg" xmlns:xlink="http://www.w3.org/1999/xlink" x="0px" y="0px"
	 viewBox="0 0 100 100" enable-background="new 0 0 100 100" xml:space="preserve">
<g>
	<g>
		<path fill="#FD9326" d="M49.3,63.2c-14.8,0-26.8-12-26.8-26.8s12-26.8,26.8-26.8s26.8,12,26.8,26.8S64.1,63.2,49.3,63.2z M49.3,13
			c-12.9,0-23.4,10.5-23.4,23.4s10.5,23.4,23.4,23.4s23.4-10.5,23.4-23.4S62.2,13,49.3,13z"/>
	</g>
	<g>
		<path fill="#FD9326" d="M67.8,90.4C53,90.4,41,78.4,41,63.6c0-14.8,12-26.8,26.8-26.8c14.8,0,26.8,12,26.8,26.8
			S82.6,90.4,67.8,90.4z M67.8,40.2c-12.9,0-23.4,10.5-23.4,23.4S54.9,87,67.8,87c12.9,0,23.4-10.5,23.4-23.4S80.7,40.2,67.8,40.2z"
			/>
	</g>
	<g>
		<path fill="#FD9326" d="M32.2,90.4c-14.8,0-26.8-12-26.8-26.8c0-14.8,12-26.8,26.8-26.8C47,36.8,59,48.8,59,63.6
			S47,90.4,32.2,90.4z M32.2,40.2c-12.9,0-23.4,10.5-23.4,23.4S19.3,87,32.2,87s23.4-10.5,23.4-23.4S45.1,40.2,32.2,40.2z"/>
	</g>
</g>
</svg>
